<svg width="299" height="299" viewBox="0 0 299 299" fill="none" xmlns="http://www.w3.org/2000/svg">
<path d="M8.34441 8.34441C13.6889 3.00149 20.9367 0 28.4939 0C36.0511 0 43.2989 3.00149 48.6434 8.34441L149.419 109.12L250.195 8.34441C255.571 3.15291 262.77 0.280268 270.242 0.345203C277.715 0.410138 284.863 3.40745 290.147 8.69158C295.431 13.9757 298.429 21.1239 298.494 28.5965C298.559 36.0691 295.686 43.2683 290.494 48.6434L189.718 149.419L290.494 250.195C295.686 255.571 298.559 262.77 298.494 270.242C298.429 277.715 295.431 284.863 290.147 290.147C284.863 295.431 277.715 298.429 270.242 298.494C262.77 298.559 255.571 295.686 250.195 290.494L149.419 189.718L48.6434 290.494C43.2683 295.686 36.0691 298.559 28.5965 298.494C21.1239 298.429 13.9757 295.431 8.69158 290.147C3.40745 284.863 0.410138 277.715 0.345203 270.242C0.280268 262.77 3.15291 255.571 8.34441 250.195L109.12 149.419L8.34441 48.6434C3.00149 43.2989 0 36.0511 0 28.4939C0 20.9367 3.00149 13.6889 8.34441 8.34441V8.34441Z" fill="#F4F4F4"/>
</svg>
