<svg width="24" height="24" viewBox="0 0 24 24" fill="none" xmlns="http://www.w3.org/2000/svg">
<path d="M12.7101 11.29C12.5231 11.1068 12.2718 11.0042 12.0101 11.0042C11.7483 11.0042 11.497 11.1068 11.3101 11.29L8.31008 14.19C8.20397 14.2776 8.11706 14.3861 8.0548 14.5088C7.99254 14.6314 7.95627 14.7656 7.94824 14.903C7.94021 15.0403 7.96061 15.1778 8.00815 15.3069C8.05569 15.436 8.12936 15.5539 8.22454 15.6532C8.31973 15.7526 8.43439 15.8312 8.56134 15.8842C8.6883 15.9371 8.82482 15.9634 8.96237 15.9612C9.09993 15.959 9.23555 15.9285 9.36076 15.8715C9.48598 15.8145 9.59809 15.7323 9.69008 15.63L11.0001 14.36V20C11.0001 20.2652 11.1054 20.5196 11.293 20.7071C11.4805 20.8947 11.7349 21 12.0001 21C12.2653 21 12.5196 20.8947 12.7072 20.7071C12.8947 20.5196 13.0001 20.2652 13.0001 20V14.41L14.2901 15.71C14.383 15.8037 14.4936 15.8781 14.6155 15.9289C14.7374 15.9797 14.8681 16.0058 15.0001 16.0058C15.1321 16.0058 15.2628 15.9797 15.3847 15.9289C15.5065 15.8781 15.6171 15.8037 15.7101 15.71C15.8038 15.617 15.8782 15.5064 15.929 15.3846C15.9797 15.2627 16.0059 15.132 16.0059 15C16.0059 14.868 15.9797 14.7373 15.929 14.6154C15.8782 14.4936 15.8038 14.383 15.7101 14.29L12.7101 11.29Z" fill="#F5F5F5"/>
<path d="M17.6699 6.99998C17.2619 5.82103 16.4965 4.7986 15.4802 4.07494C14.464 3.35129 13.2475 2.9624 11.9999 2.9624C10.7523 2.9624 9.5358 3.35129 8.51956 4.07494C7.50332 4.7986 6.73794 5.82103 6.3299 6.99998C5.43145 7.12032 4.58261 7.48263 3.8742 8.04817C3.16578 8.61371 2.62443 9.3612 2.30806 10.2107C1.99169 11.0601 1.91221 11.9796 2.0781 12.8708C2.244 13.762 2.64904 14.5913 3.2499 15.27C3.32247 15.3978 3.42235 15.5081 3.5424 15.5929C3.66246 15.6778 3.79974 15.7351 3.94448 15.7608C4.08922 15.7866 4.23786 15.7801 4.3798 15.7418C4.52174 15.7035 4.6535 15.6345 4.76569 15.5395C4.87789 15.4445 4.96776 15.3259 5.02891 15.1922C5.09006 15.0585 5.12098 14.913 5.11947 14.766C5.11796 14.619 5.08406 14.4742 5.02018 14.3417C4.9563 14.2093 4.86402 14.0927 4.7499 14C4.36301 13.5674 4.10988 13.032 4.02118 12.4585C3.93249 11.885 4.01203 11.2981 4.25017 10.7689C4.48831 10.2396 4.87483 9.79087 5.36289 9.47691C5.85094 9.16295 6.41958 8.99728 6.9999 8.99998H7.0999C7.33384 9.0047 7.56203 8.92723 7.74475 8.78105C7.92747 8.63488 8.05314 8.42926 8.0999 8.19998C8.28351 7.29575 8.77408 6.4828 9.48849 5.89888C10.2029 5.31496 11.0972 4.99597 12.0199 4.99597C12.9426 4.99597 13.8369 5.31496 14.5513 5.89888C15.2657 6.4828 15.7563 7.29575 15.9399 8.19998C15.9866 8.42926 16.1123 8.63488 16.295 8.78105C16.4778 8.92723 16.7059 9.0047 16.9399 8.99998H16.9999C17.5802 8.99728 18.1488 9.16295 18.6369 9.47691C19.125 9.79087 19.5115 10.2396 19.7496 10.7689C19.9878 11.2981 20.0673 11.885 19.9786 12.4585C19.8899 13.032 19.6368 13.5674 19.2499 14C19.1618 14.0988 19.0942 14.214 19.051 14.3392C19.0078 14.4643 18.9899 14.5967 18.9983 14.7288C19.0066 14.8609 19.0411 14.99 19.0998 15.1086C19.1584 15.2273 19.24 15.3331 19.3399 15.42C19.5222 15.5808 19.7568 15.6696 19.9999 15.67C20.1419 15.6698 20.2822 15.6394 20.4115 15.5808C20.5408 15.5221 20.6562 15.4366 20.7499 15.33C21.3674 14.6524 21.7868 13.8181 21.9621 12.9183C22.1375 12.0185 22.0621 11.0878 21.7441 10.228C21.4262 9.36811 20.878 8.61221 20.1595 8.04291C19.4409 7.47362 18.5797 7.11282 17.6699 6.99998V6.99998Z" fill="#F5F5F5"/>
</svg>
